<svg width="128" height="128" viewBox="0 0 128 128" fill="none" xmlns="http://www.w3.org/2000/svg">
<mask id="path-1-inside-1_1996_6148" fill="white">
<path fill-rule="evenodd" clip-rule="evenodd" d="M45.7168 22.179C41.2985 22.179 37.7168 25.7607 37.7168 30.179V101.347L37.7177 101.347V105.507L44.2541 101.348L52.2431 106.432L60.2326 101.347L68.2221 106.432L76.2115 101.347L84.201 106.432L92.1905 101.347L98.001 105.045L98.001 101.347V30.179C98.001 25.7607 94.4193 22.179 90.001 22.179H45.7168Z"/>
</mask>
<path fill-rule="evenodd" clip-rule="evenodd" d="M45.7168 22.179C41.2985 22.179 37.7168 25.7607 37.7168 30.179V101.347L37.7177 101.347V105.507L44.2541 101.348L52.2431 106.432L60.2326 101.347L68.2221 106.432L76.2115 101.347L84.201 106.432L92.1905 101.347L98.001 105.045L98.001 101.347V30.179C98.001 25.7607 94.4193 22.179 90.001 22.179H45.7168Z" fill="#434343"/>
<path d="M37.7168 101.347H37.2168V101.843L37.7128 101.847L37.7168 101.347ZM37.7177 101.347H38.2177V100.851L37.7218 100.847L37.7177 101.347ZM37.7177 105.507H37.2177V106.418L37.9862 105.929L37.7177 105.507ZM44.2541 101.348L44.5226 100.926L44.2541 100.755L43.9857 100.926L44.2541 101.348ZM52.2431 106.432L51.9747 106.853L52.2431 107.024L52.5115 106.853L52.2431 106.432ZM60.2326 101.347L60.501 100.926L60.2326 100.755L59.9641 100.926L60.2326 101.347ZM68.2221 106.432L67.9536 106.853L68.2221 107.024L68.4905 106.853L68.2221 106.432ZM76.2115 101.347L76.48 100.926L76.2115 100.755L75.9431 100.926L76.2115 101.347ZM84.201 106.432L83.9326 106.853L84.201 107.024L84.4694 106.853L84.201 106.432ZM92.1905 101.347L92.4589 100.926L92.1905 100.755L91.922 100.926L92.1905 101.347ZM98.001 105.045L97.7326 105.467L98.501 105.956L98.501 105.045H98.001ZM98.001 101.347H97.501H98.001ZM38.2168 30.179C38.2168 26.0368 41.5747 22.679 45.7168 22.679V21.679C41.0224 21.679 37.2168 25.4845 37.2168 30.179H38.2168ZM38.2168 101.347V30.179H37.2168V101.347H38.2168ZM37.7218 100.847L37.7208 100.847L37.7128 101.847L37.7137 101.847L37.7218 100.847ZM38.2177 105.507V101.347H37.2177V105.507H38.2177ZM43.9857 100.926L37.4493 105.085L37.9862 105.929L44.5226 101.77L43.9857 100.926ZM52.5115 106.01L44.5226 100.926L43.9857 101.77L51.9747 106.853L52.5115 106.01ZM59.9641 100.926L51.9747 106.01L52.5115 106.853L60.501 101.769L59.9641 100.926ZM68.4905 106.01L60.501 100.926L59.9641 101.769L67.9536 106.853L68.4905 106.01ZM75.9431 100.926L67.9536 106.01L68.4905 106.853L76.48 101.769L75.9431 100.926ZM84.4694 106.01L76.48 100.926L75.9431 101.769L83.9326 106.853L84.4694 106.01ZM91.922 100.926L83.9326 106.01L84.4694 106.853L92.4589 101.769L91.922 100.926ZM98.2695 104.623L92.4589 100.926L91.922 101.769L97.7326 105.467L98.2695 104.623ZM97.501 101.347L97.501 105.045H98.501L98.501 101.347H97.501ZM97.501 30.179V101.347H98.501V30.179H97.501ZM90.001 22.679C94.1431 22.679 97.501 26.0368 97.501 30.179H98.501C98.501 25.4845 94.6954 21.679 90.001 21.679V22.679ZM45.7168 22.679H90.001V21.679H45.7168V22.679Z" fill="url(#paint0_linear_1996_6148)" fill-opacity="0.2" mask="url(#path-1-inside-1_1996_6148)"/>
<path fill-rule="evenodd" clip-rule="evenodd" d="M37 20C32.5817 20 29 23.5817 29 28V92.6316V93.148C29 94.7262 30.7423 95.6826 32.0738 94.8353L34.4631 93.3148C35.1182 92.8979 35.9555 92.8979 36.6106 93.3148L42.4526 97.0325C43.1077 97.4494 43.9449 97.4494 44.6001 97.0325L50.442 93.3148C51.0972 92.8979 51.9344 92.8979 52.5895 93.3148L58.4315 97.0325C59.0866 97.4494 59.9239 97.4494 60.579 97.0325L67.4946 92.6316C67.4947 92.6316 67.4947 92.6316 67.4947 92.6316C67.4948 92.6316 67.4948 92.6316 67.4948 92.6316L74.4105 97.0325C75.0656 97.4494 75.9028 97.4494 76.558 97.0325L82.3995 93.3151C83.0546 92.8982 83.8918 92.8982 84.547 93.3151L87.2811 95.055C88.1484 95.607 89.2833 94.984 89.2833 93.956V92.632C89.2833 92.6318 89.2835 92.6316 89.2837 92.6316C89.284 92.6316 89.2842 92.6314 89.2842 92.6311V28C89.2842 23.5817 85.7025 20 81.2842 20H37Z" fill="#CCCCCC"/>
<path fill-rule="evenodd" clip-rule="evenodd" d="M37 23C32.5817 23 29 26.5817 29 31V95.6316V96.148C29 97.7262 30.7423 98.6826 32.0738 97.8353L34.4631 96.3148C35.1182 95.8979 35.9555 95.8979 36.6106 96.3148L42.4526 100.032C43.1077 100.449 43.9449 100.449 44.6001 100.032L50.442 96.3148C51.0972 95.8979 51.9344 95.8979 52.5895 96.3148L58.4315 100.032C59.0866 100.449 59.9239 100.449 60.579 100.032L67.4946 95.6316C67.4947 95.6316 67.4947 95.6316 67.4947 95.6316C67.4948 95.6316 67.4948 95.6316 67.4948 95.6316L74.4105 100.032C75.0656 100.449 75.9028 100.449 76.558 100.032L82.3995 96.3151C83.0546 95.8982 83.8918 95.8982 84.547 96.3151L87.2811 98.055C88.1484 98.607 89.2833 97.984 89.2833 96.956V95.632C89.2833 95.6318 89.2835 95.6316 89.2837 95.6316C89.284 95.6316 89.2842 95.6314 89.2842 95.6311V31C89.2842 26.5817 85.7025 23 81.2842 23H37Z" fill="url(#paint1_linear_1996_6148)"/>
<path d="M87.2811 98.055L87.0127 98.4769L87.2811 98.055ZM82.3995 96.3151L82.131 95.8933L82.3995 96.3151ZM84.547 96.3151L84.8154 95.8933L84.547 96.3151ZM74.4105 100.032L74.142 100.454L74.4105 100.032ZM76.558 100.032L76.2895 99.6106L76.558 100.032ZM67.4948 95.6316L67.7633 95.2098L67.4948 95.6316ZM67.4946 95.6316L67.7631 96.0534L67.4946 95.6316ZM58.4315 100.032L58.1631 100.454L58.4315 100.032ZM60.579 100.032L60.8475 100.454L60.579 100.032ZM50.442 96.3148L50.1736 95.893L50.442 96.3148ZM52.5895 96.3148L52.858 95.893L52.5895 96.3148ZM42.4526 100.032L42.1841 100.454L42.4526 100.032ZM44.6001 100.032L44.8685 100.454L44.6001 100.032ZM34.4631 96.3148L34.1947 95.893L34.4631 96.3148ZM36.6106 96.3148L36.3422 96.7367L36.6106 96.3148ZM32.0738 97.8353L32.3422 98.2572L32.0738 97.8353ZM29.5 31C29.5 26.8579 32.8579 23.5 37 23.5V22.5C32.3056 22.5 28.5 26.3056 28.5 31H29.5ZM29.5 95.6316V31H28.5V95.6316H29.5ZM28.5 95.6316V96.148H29.5V95.6316H28.5ZM32.3422 98.2572L34.7315 96.7367L34.1947 95.893L31.8053 97.4135L32.3422 98.2572ZM42.721 99.6106L36.879 95.893L36.3422 96.7367L42.1841 100.454L42.721 99.6106ZM50.1736 95.893L44.3316 99.6106L44.8685 100.454L50.7105 96.7367L50.1736 95.893ZM58.6999 99.6106L52.858 95.893L52.3211 96.7367L58.1631 100.454L58.6999 99.6106ZM67.2262 95.2098L60.3106 99.6106L60.8475 100.454L67.7631 96.0534L67.2262 95.2098ZM74.6789 99.6106L67.7633 95.2098L67.2264 96.0534L74.142 100.454L74.6789 99.6106ZM82.131 95.8933L76.2895 99.6106L76.8264 100.454L82.6679 96.737L82.131 95.8933ZM87.5495 97.6332L84.8154 95.8933L84.2785 96.737L87.0127 98.4769L87.5495 97.6332ZM88.7833 95.632V96.956H89.7833V95.632H88.7833ZM88.7842 31V95.6311H89.7842V31H88.7842ZM81.2842 23.5C85.4263 23.5 88.7842 26.8579 88.7842 31H89.7842C89.7842 26.3056 85.9786 22.5 81.2842 22.5V23.5ZM37 23.5H81.2842V22.5H37V23.5ZM89.2755 96.1315C89.5588 96.1362 89.7842 95.907 89.7842 95.6311H88.7842C88.7842 95.3557 89.0092 95.127 89.292 95.1316L89.2755 96.1315ZM89.7833 95.632C89.7833 95.9111 89.5546 96.1361 89.2755 96.1315L89.292 95.1316C89.0124 95.127 88.7833 95.3524 88.7833 95.632H89.7833ZM87.0127 98.4769C88.2128 99.2406 89.7833 98.3785 89.7833 96.956H88.7833C88.7833 97.5894 88.084 97.9733 87.5495 97.6332L87.0127 98.4769ZM82.6679 96.737C83.1592 96.4243 83.7872 96.4243 84.2785 96.737L84.8154 95.8933C83.9965 95.3722 82.9499 95.3722 82.131 95.8933L82.6679 96.737ZM74.142 100.454C74.9609 100.975 76.0075 100.975 76.8264 100.454L76.2895 99.6106C75.7982 99.9233 75.1702 99.9233 74.6789 99.6106L74.142 100.454ZM67.4947 96.1316C67.3994 96.1316 67.3064 96.1043 67.2264 96.0534L67.7633 95.2098C67.6832 95.1588 67.5901 95.1316 67.4947 95.1316V96.1316ZM67.7631 96.0534C67.6829 96.1045 67.5898 96.1316 67.4947 96.1316V95.1316C67.3996 95.1316 67.3065 95.1587 67.2262 95.2098L67.7631 96.0534ZM58.1631 100.454C58.982 100.975 60.0285 100.975 60.8475 100.454L60.3106 99.6106C59.8192 99.9233 59.1913 99.9233 58.6999 99.6106L58.1631 100.454ZM50.7105 96.7367C51.2018 96.424 51.8298 96.424 52.3211 96.7367L52.858 95.893C52.0391 95.3719 50.9925 95.3719 50.1736 95.893L50.7105 96.7367ZM42.1841 100.454C43.003 100.975 44.0496 100.975 44.8685 100.454L44.3316 99.6106C43.8403 99.9233 43.2123 99.9233 42.721 99.6106L42.1841 100.454ZM34.7315 96.7367C35.2229 96.424 35.8508 96.424 36.3422 96.7367L36.879 95.893C36.0601 95.3719 35.0136 95.3719 34.1947 95.893L34.7315 96.7367ZM28.5 96.148C28.5 98.1207 30.6779 99.3163 32.3422 98.2572L31.8053 97.4135C30.8067 98.049 29.5 97.3316 29.5 96.148H28.5Z" fill="url(#paint2_linear_1996_6148)"/>
<rect x="34.8105" y="27.9895" width="48.6632" height="56.6526" rx="5" fill="#191919" fill-opacity="0.99"/>
<rect x="42.8" y="36.7053" width="32.6842" height="6.53684" rx="3.26842" fill="#030303"/>
<rect x="43.05" y="36.9553" width="32.1842" height="6.03684" rx="3.01842" stroke="url(#paint3_linear_1996_6148)" stroke-opacity="0.7" stroke-width="0.5"/>
<rect x="42.8" y="47.6001" width="23.2421" height="6.53684" rx="3.26842" fill="#030303"/>
<rect x="43.05" y="47.8501" width="22.7421" height="6.03684" rx="3.01842" stroke="url(#paint4_linear_1996_6148)" stroke-opacity="0.3" stroke-width="0.5"/>
<rect x="42.8" y="58.4946" width="29.7789" height="6.53684" rx="3.26842" fill="#030303"/>
<rect x="43.05" y="58.7446" width="29.2789" height="6.03684" rx="3.01842" stroke="url(#paint5_linear_1996_6148)" stroke-opacity="0.3" stroke-width="0.5"/>
<rect x="42.8" y="69.3894" width="25.4211" height="6.53684" rx="3.26842" fill="#030303" fill-opacity="0.6"/>
<rect x="43.05" y="69.6394" width="24.9211" height="6.03684" rx="3.01842" stroke="url(#paint6_linear_1996_6148)" stroke-opacity="0.4" stroke-width="0.5"/>
<defs>
<linearGradient id="paint0_linear_1996_6148" x1="94.7326" y1="22.179" x2="67.8589" y2="106.432" gradientUnits="userSpaceOnUse">
<stop stop-color="white"/>
<stop offset="0.531106" stop-color="white" stop-opacity="0"/>
</linearGradient>
<linearGradient id="paint1_linear_1996_6148" x1="59.1421" y1="23" x2="59.1421" y2="100.345" gradientUnits="userSpaceOnUse">
<stop stop-color="#1E1E1E"/>
<stop offset="1" stop-color="#0A0A0A"/>
</linearGradient>
<linearGradient id="paint2_linear_1996_6148" x1="59.1421" y1="23" x2="59.1421" y2="100.345" gradientUnits="userSpaceOnUse">
<stop stop-color="white"/>
<stop offset="1" stop-color="white" stop-opacity="0"/>
</linearGradient>
<linearGradient id="paint3_linear_1996_6148" x1="48.0411" y1="27.874" x2="66.2485" y2="50.6209" gradientUnits="userSpaceOnUse">
<stop stop-color="white"/>
<stop offset="1" stop-color="white" stop-opacity="0"/>
</linearGradient>
<linearGradient id="paint4_linear_1996_6148" x1="46.527" y1="38.7687" x2="65.0575" y2="55.2314" gradientUnits="userSpaceOnUse">
<stop stop-color="white"/>
<stop offset="1" stop-color="white" stop-opacity="0"/>
</linearGradient>
<linearGradient id="paint5_linear_1996_6148" x1="47.5752" y1="49.6633" x2="66.0802" y2="70.727" gradientUnits="userSpaceOnUse">
<stop stop-color="white"/>
<stop offset="1" stop-color="white" stop-opacity="0"/>
</linearGradient>
<linearGradient id="paint6_linear_1996_6148" x1="46.8764" y1="60.558" x2="65.5291" y2="78.6828" gradientUnits="userSpaceOnUse">
<stop stop-color="white"/>
<stop offset="1" stop-color="white" stop-opacity="0"/>
</linearGradient>
</defs>
</svg>
