<svg width="186" height="40" viewBox="0 0 186 40" fill="none" xmlns="http://www.w3.org/2000/svg">
<g clip-path="url(#clip0_2364_6786)">
<path d="M185.231 1H39.0256L10.2275 29.798" stroke="#999999" stroke-width="0.886094"/>
<path d="M10.2278 39.1021C15.3663 39.1021 19.5318 34.9366 19.5318 29.7981C19.5318 24.6597 15.3663 20.4941 10.2278 20.4941C5.08936 20.4941 0.923828 24.6597 0.923828 29.7981C0.923828 34.9366 5.08936 39.1021 10.2278 39.1021Z" stroke="#999999" stroke-width="0.886094"/>
<path d="M10.2283 34.2284C12.6752 34.2284 14.6588 32.2448 14.6588 29.7979C14.6588 27.351 12.6752 25.3674 10.2283 25.3674C7.78144 25.3674 5.79785 27.351 5.79785 29.7979C5.79785 32.2448 7.78144 34.2284 10.2283 34.2284Z" fill="white"/>
</g>
<defs>
<clipPath id="clip0_2364_6786">
<rect width="277" height="49" fill="white"/>
</clipPath>
</defs>
</svg>
