<svg width="186" height="40" viewBox="0 0 186 40" fill="none" xmlns="http://www.w3.org/2000/svg">
<g clip-path="url(#clip0_2364_6796)">
<path d="M185.231 1.05103H39.0256L10.2275 29.8491" stroke="#999999" stroke-width="0.886094"/>
<path d="M10.2278 39.1531C15.3663 39.1531 19.5318 34.9876 19.5318 29.8491C19.5318 24.7107 15.3663 20.5452 10.2278 20.5452C5.08936 20.5452 0.923828 24.7107 0.923828 29.8491C0.923828 34.9876 5.08936 39.1531 10.2278 39.1531Z" stroke="#999999" stroke-width="0.886094"/>
<path d="M10.2273 34.2796C12.6742 34.2796 14.6578 32.2961 14.6578 29.8492C14.6578 27.4023 12.6742 25.4187 10.2273 25.4187C7.78046 25.4187 5.79688 27.4023 5.79688 29.8492C5.79688 32.2961 7.78046 34.2796 10.2273 34.2796Z" fill="white"/>
</g>
<defs>
<clipPath id="clip0_2364_6796">
<rect width="186" height="40" fill="white"/>
</clipPath>
</defs>
</svg>
