<svg width="277" height="49" viewBox="0 0 277 49" fill="none" xmlns="http://www.w3.org/2000/svg">
<g clip-path="url(#clip0_2364_6801)">
<path d="M9.78418 9.94897L48.3293 48.494H276.498" stroke="#999999" stroke-width="0.886094"/>
<path d="M10.2278 19.253C15.3663 19.253 19.5318 15.0874 19.5318 9.949C19.5318 4.81055 15.3663 0.64502 10.2278 0.64502C5.08936 0.64502 0.923828 4.81055 0.923828 9.949C0.923828 15.0874 5.08936 19.253 10.2278 19.253Z" stroke="#999999" stroke-width="0.886094"/>
<path d="M10.2273 14.3795C12.6742 14.3795 14.6578 12.3959 14.6578 9.94903C14.6578 7.50214 12.6742 5.51855 10.2273 5.51855C7.78046 5.51855 5.79688 7.50214 5.79688 9.94903C5.79688 12.3959 7.78046 14.3795 10.2273 14.3795Z" fill="white"/>
</g>
<defs>
<clipPath id="clip0_2364_6801">
<rect width="277" height="49" fill="white"/>
</clipPath>
</defs>
</svg>
