<svg width="277" height="49" viewBox="0 0 277 49" fill="none" xmlns="http://www.w3.org/2000/svg">
<g clip-path="url(#clip0_2364_6805)">
<path d="M9.78516 9.79663L48.3302 48.3417H276.499" stroke="#999999" stroke-width="0.886094"/>
<path d="M10.2278 19.1006C15.3663 19.1006 19.5318 14.9351 19.5318 9.79666C19.5318 4.65821 15.3663 0.492676 10.2278 0.492676C5.08936 0.492676 0.923828 4.65821 0.923828 9.79666C0.923828 14.9351 5.08936 19.1006 10.2278 19.1006Z" stroke="#999999" stroke-width="0.886094"/>
<path d="M10.2273 14.2272C12.6742 14.2272 14.6578 12.2436 14.6578 9.79668C14.6578 7.3498 12.6742 5.36621 10.2273 5.36621C7.78046 5.36621 5.79688 7.3498 5.79688 9.79668C5.79688 12.2436 7.78046 14.2272 10.2273 14.2272Z" fill="white"/>
</g>
<defs>
<clipPath id="clip0_2364_6805">
<rect width="277" height="49" fill="white"/>
</clipPath>
</defs>
</svg>
