<svg width="261" height="42" viewBox="0 0 261 42" fill="none" xmlns="http://www.w3.org/2000/svg">
<g clip-path="url(#clip0_2364_6809)">
<path d="M0.899414 41.0763C39.2326 41.0763 220.009 41.0763 220.009 41.0763L251.22 10.063" stroke="#999999" stroke-width="0.886094"/>
<path d="M251.22 19.367C256.358 19.367 260.524 15.2015 260.524 10.063C260.524 4.92457 256.358 0.759033 251.22 0.759033C246.082 0.759033 241.916 4.92457 241.916 10.063C241.916 15.2015 246.082 19.367 251.22 19.367Z" stroke="#999999" stroke-width="0.886094"/>
<path d="M251.221 14.4933C253.668 14.4933 255.652 12.5097 255.652 10.0628C255.652 7.61591 253.668 5.63232 251.221 5.63232C248.775 5.63232 246.791 7.61591 246.791 10.0628C246.791 12.5097 248.775 14.4933 251.221 14.4933Z" fill="white"/>
</g>
<defs>
<clipPath id="clip0_2364_6809">
<rect width="261" height="42" fill="white"/>
</clipPath>
</defs>
</svg>
