<svg width="214" height="42" viewBox="0 0 214 42" fill="none" xmlns="http://www.w3.org/2000/svg">
<g clip-path="url(#clip0_2364_6813)">
<path d="M0.0126953 40.8687C38.3458 40.8687 172.159 40.8687 172.159 40.8687L203.371 9.85547" stroke="#999999" stroke-width="0.886094"/>
<path d="M203.371 19.1595C208.51 19.1595 212.675 14.9939 212.675 9.85549C212.675 4.71705 208.51 0.551514 203.371 0.551514C198.233 0.551514 194.067 4.71705 194.067 9.85549C194.067 14.9939 198.233 19.1595 203.371 19.1595Z" stroke="#999999" stroke-width="0.886094"/>
<path d="M203.371 14.286C205.818 14.286 207.801 12.3024 207.801 9.85552C207.801 7.40864 205.818 5.42505 203.371 5.42505C200.924 5.42505 198.94 7.40864 198.94 9.85552C198.94 12.3024 200.924 14.286 203.371 14.286Z" fill="white"/>
</g>
<defs>
<clipPath id="clip0_2364_6813">
<rect width="214" height="42" fill="white"/>
</clipPath>
</defs>
</svg>
