<svg width="332" height="32" viewBox="0 0 332 32" fill="none" xmlns="http://www.w3.org/2000/svg">
<g clip-path="url(#clip0_2364_6818)">
<path d="M0 1.16479H300.386L321.209 21.988" stroke="#999999" stroke-width="0.886094"/>
<path d="M321.652 30.8489C326.79 30.8489 330.956 26.6834 330.956 21.5449C330.956 16.4065 326.79 12.241 321.652 12.241C316.513 12.241 312.348 16.4065 312.348 21.5449C312.348 26.6834 316.513 30.8489 321.652 30.8489Z" stroke="#999999" stroke-width="0.886094"/>
<path d="M321.652 25.9754C324.099 25.9754 326.083 23.9919 326.083 21.545C326.083 19.0981 324.099 17.1145 321.652 17.1145C319.205 17.1145 317.222 19.0981 317.222 21.545C317.222 23.9919 319.205 25.9754 321.652 25.9754Z" fill="white"/>
</g>
<defs>
<clipPath id="clip0_2364_6818">
<rect width="332" height="32" fill="white"/>
</clipPath>
</defs>
</svg>
