<svg width="208" height="57" viewBox="0 0 208 57" fill="none" xmlns="http://www.w3.org/2000/svg">
<g clip-path="url(#clip0_2364_6822)">
<path d="M0 1.16504H150.636L198.042 48.571" stroke="#999999" stroke-width="0.886094"/>
<path d="M198.042 56.5459C203.181 56.5459 207.346 52.3804 207.346 47.242C207.346 42.1035 203.181 37.938 198.042 37.938C192.904 37.938 188.738 42.1035 188.738 47.242C188.738 52.3804 192.904 56.5459 198.042 56.5459Z" stroke="#999999" stroke-width="0.886094"/>
<path d="M198.042 51.6725C200.489 51.6725 202.472 49.6889 202.472 47.242C202.472 44.7951 200.489 42.8115 198.042 42.8115C195.595 42.8115 193.611 44.7951 193.611 47.242C193.611 49.6889 195.595 51.6725 198.042 51.6725Z" fill="white"/>
</g>
<defs>
<clipPath id="clip0_2364_6822">
<rect width="208" height="57" fill="white"/>
</clipPath>
</defs>
</svg>
